<svg width="126" height="126" viewBox="0 0 126 126" fill="black" xmlns="http://www.w3.org/2000/svg">
<g clip-path="url(#clip0_11_1835)">
<path d="M68.6228 9.44317L69.4883 4.42647C69.218 4.37553 69.0282 4.28053 68.9191 4.14146C68.8107 3.99822 68.7727 3.83277 68.805 3.64512C68.8381 3.45329 68.9294 3.31015 69.0788 3.21568C69.2331 3.11777 69.4646 3.09544 69.7732 3.14868L72.4556 3.61791C72.8726 3.68986 73.2659 3.83715 73.6354 4.0598C74.0091 4.28316 74.2964 4.53456 74.4973 4.81399C74.6498 5.02496 74.7971 5.30374 74.9392 5.65031C75.0854 5.99761 75.1819 6.33419 75.2288 6.66005C75.2756 6.98591 75.2605 7.37194 75.1835 7.81815L75.0778 8.43116C74.9842 8.97328 74.8094 9.43911 74.5533 9.82864C74.2978 10.214 73.997 10.5142 73.6507 10.7293C73.3092 10.9409 72.9964 11.0867 72.7121 11.1664C72.2613 11.2905 71.7043 11.2953 71.0413 11.1809L68.4641 10.7363C68.1555 10.683 67.9446 10.5865 67.8313 10.4467C67.7228 10.3035 67.6852 10.136 67.7183 9.94415C67.7507 9.75649 67.8419 9.61335 67.9921 9.51471C68.1464 9.4168 68.3566 9.39295 68.6228 9.44317ZM69.9051 9.66441L71.2687 9.89967C71.7775 9.98745 72.1738 9.98066 72.4575 9.87931C72.8284 9.74576 73.1248 9.54569 73.3469 9.27911C73.569 9.01253 73.7206 8.64362 73.8019 8.17239L73.9066 7.56564C73.9764 7.16113 73.9604 6.79336 73.8586 6.46231C73.6988 5.94519 73.4818 5.57279 73.2076 5.34512C72.9382 5.114 72.5763 4.95923 72.1218 4.88081L70.7706 4.6477L69.9051 9.66441Z" fill="white"/>
<path d="M78.2359 9.52695L77.648 11.3449L80.8067 12.3664L81.0235 11.696C81.1199 11.3981 81.2446 11.2049 81.3977 11.1166C81.5562 11.0255 81.728 11.0099 81.9132 11.0698C82.0944 11.1284 82.2205 11.2403 82.2916 11.4057C82.368 11.5682 82.358 11.7985 82.2617 12.0965L81.6444 14.005L75.8162 12.1201C75.5182 12.0237 75.323 11.8984 75.2307 11.7439C75.1436 11.5868 75.13 11.4156 75.1899 11.2304C75.2485 11.0492 75.3605 10.9231 75.5258 10.852C75.6924 10.7769 75.9227 10.7869 76.2166 10.882L76.4099 10.9445L77.9764 6.10067L77.7831 6.03816C77.4851 5.9418 77.29 5.81642 77.1976 5.66201C77.1105 5.50487 77.0969 5.3337 77.1568 5.14848C77.2167 4.96326 77.3273 4.83447 77.4886 4.7621C77.6552 4.687 77.8875 4.69763 78.1855 4.79399L83.74 6.59703L83.1306 8.4814C83.0355 8.77533 82.9108 8.96849 82.7564 9.06087C82.6033 9.14923 82.4341 9.16346 82.2489 9.10356C82.0637 9.04366 81.9329 8.93242 81.8565 8.76984C81.7841 8.60856 81.7961 8.37894 81.8925 8.08098L82.1015 7.43474L79.2145 6.50108L78.6363 8.28882L79.7235 8.64041C79.8276 8.31829 79.9249 8.1207 80.0153 8.04762C80.2039 7.89069 80.4129 7.84934 80.6425 7.92357C80.8236 7.98216 80.9498 8.09412 81.0208 8.25942C81.0972 8.42201 81.0873 8.65228 80.9909 8.95023L80.5299 10.3756C80.4427 10.6454 80.3519 10.8161 80.2575 10.8879C80.0675 11.0355 79.8637 11.0741 79.6463 11.0038C79.4168 10.9296 79.2715 10.7736 79.2105 10.536C79.1801 10.4238 79.2176 10.2047 79.3231 9.87854L78.2359 9.52695Z" fill="white"/>
<path d="M85.6925 12.3279L84.8501 14.0428L87.8298 15.5066L88.1405 14.8742C88.2786 14.5931 88.4297 14.4198 88.5939 14.3543C88.7637 14.2869 88.936 14.2961 89.1107 14.3819C89.2817 14.4659 89.3904 14.5948 89.4371 14.7685C89.4894 14.9404 89.4465 15.1669 89.3084 15.4479L88.424 17.2483L82.9261 14.5475C82.645 14.4094 82.4698 14.2573 82.4005 14.0913C82.3369 13.9233 82.348 13.7519 82.4338 13.5772C82.5178 13.4063 82.6467 13.2975 82.8205 13.2509C82.9961 13.2004 83.2226 13.2433 83.4998 13.3795L83.6822 13.4691L85.9268 8.89981L85.7445 8.81025C85.4634 8.67218 85.2882 8.52011 85.2189 8.35406C85.1553 8.18607 85.1664 8.01471 85.2522 7.83999C85.338 7.66528 85.4659 7.55366 85.6359 7.50515C85.8116 7.45471 86.0399 7.49853 86.321 7.6366L91.5598 10.2172L90.6865 11.9947C90.5503 12.272 90.3992 12.4453 90.2331 12.5146C90.0689 12.5801 89.8995 12.5699 89.7248 12.4841C89.5501 12.3983 89.4365 12.2694 89.3842 12.0976C89.3357 11.9276 89.3805 11.7021 89.5186 11.421L89.8181 10.8114L87.0947 9.47356L86.2663 11.16L87.2918 11.6638C87.4411 11.3599 87.5657 11.1783 87.6655 11.1189C87.8747 10.9906 88.0876 10.9797 88.3041 11.086C88.475 11.17 88.5838 11.2989 88.6304 11.4727C88.6827 11.6445 88.6398 11.871 88.5017 12.152L87.8412 13.4966C87.7162 13.7511 87.6019 13.9071 87.4982 13.9646C87.2889 14.0834 87.0818 14.0924 86.8767 13.9917C86.6602 13.8853 86.5388 13.7102 86.5124 13.4662C86.4984 13.3509 86.5669 13.1394 86.7181 12.8317L85.6925 12.3279Z" fill="white"/>
<path d="M92.5524 16.4182L91.6252 17.7682L92.0124 18.0341C92.2706 18.2114 92.419 18.3878 92.4576 18.5632C92.5022 18.7376 92.4693 18.905 92.3591 19.0654C92.2513 19.2224 92.1069 19.3131 91.9258 19.3376C91.7505 19.361 91.5339 19.2841 91.2757 19.1068L89.6484 17.9892C89.3903 17.8119 89.239 17.6361 89.1944 17.4618C89.1558 17.2863 89.1915 17.1184 89.3017 16.9579C89.4095 16.8009 89.5528 16.7119 89.7315 16.6909C89.9126 16.6664 90.1305 16.7416 90.3851 16.9165L90.5526 17.0315L93.4347 12.8351L93.2672 12.7201C93.0091 12.5428 92.8577 12.367 92.8132 12.1927C92.7745 12.0172 92.8103 11.8493 92.9205 11.6888C93.0307 11.5284 93.1734 11.4364 93.3486 11.413C93.5298 11.3885 93.7494 11.4649 94.0075 11.6422L96.4318 13.3149C97.1887 13.8348 97.6454 14.4256 97.8018 15.0874C97.964 15.7482 97.8607 16.3472 97.4917 16.8844C97.2617 17.2192 96.9544 17.4574 96.5698 17.5988C96.1876 17.7367 95.7263 17.7767 95.186 17.7188C95.2762 18.0733 95.3438 18.4945 95.3887 18.9822C95.4126 19.2913 95.4156 19.7503 95.3978 20.3592C95.6699 20.5461 95.8304 20.6974 95.8793 20.8131C95.962 21.029 95.9362 21.2347 95.8021 21.43C95.6943 21.587 95.5516 21.6789 95.374 21.7058C95.1987 21.7292 94.9821 21.6523 94.7239 21.475L94.1117 21.0545C94.1655 19.115 93.9998 17.8127 93.6146 17.1477L92.5524 16.4182ZM93.2891 15.3456L94.1263 15.9206C94.4367 16.1338 94.7464 16.2772 95.0553 16.3507C95.4694 16.4503 95.7802 16.4687 95.9877 16.4058C96.1986 16.3453 96.3508 16.2471 96.4442 16.111C96.5832 15.9087 96.6032 15.6478 96.5043 15.3284C96.4078 15.0054 96.152 14.7014 95.7369 14.4163L94.5073 13.5718L93.2891 15.3456Z" fill="white"/>
<path d="M103.133 26.6009L100.963 24.3024L100.168 24.6163L100.386 24.8471C100.601 25.0748 100.709 25.2784 100.71 25.4581C100.717 25.6379 100.649 25.7946 100.508 25.9282C100.369 26.059 100.209 26.1172 100.027 26.103C99.8505 26.089 99.6549 25.9681 99.4399 25.7404L98.2372 24.4665C98.0222 24.2389 97.9127 24.0366 97.9088 23.8599C97.9051 23.6772 97.974 23.519 98.1155 23.3854C98.2571 23.2517 98.4204 23.1936 98.6055 23.2109C98.7906 23.2281 98.9905 23.3566 99.2051 23.5963L104.31 21.5875L103.726 20.9691C103.511 20.7414 103.4 20.5376 103.393 20.3578C103.392 20.1782 103.463 20.0215 103.604 19.8879C103.746 19.7543 103.905 19.6945 104.081 19.7085C104.263 19.7227 104.462 19.8437 104.677 20.0714L106.603 22.1204L103.733 28.3918C103.942 28.6133 104.055 28.7827 104.073 28.9C104.105 29.1374 104.038 29.3345 103.872 29.4914C103.733 29.6221 103.575 29.6819 103.395 29.6708C103.219 29.6568 103.023 29.5359 102.808 29.3082L101.606 28.0343C101.391 27.8066 101.28 27.6029 101.273 27.4231C101.272 27.2434 101.343 27.0868 101.484 26.9531C101.623 26.8224 101.78 26.7641 101.956 26.7781C102.138 26.7923 102.337 26.9133 102.552 27.141L102.77 27.3717L103.133 26.6009ZM103.709 25.3152L104.864 22.7844L102.267 23.7875L103.709 25.3152Z" fill="white"/>
<path d="M108.611 28.338L105.397 30.6084L105.668 30.9921C105.848 31.2479 105.926 31.4648 105.902 31.6427C105.883 31.8217 105.794 31.9673 105.635 32.0796C105.48 32.1895 105.313 32.2245 105.135 32.1847C104.962 32.1459 104.786 31.9986 104.605 31.7428L103.62 30.3481C103.439 30.0923 103.358 29.8749 103.377 29.696C103.401 29.518 103.493 29.3729 103.652 29.2606C103.804 29.1532 103.968 29.1176 104.144 29.154C104.32 29.1903 104.487 29.3209 104.646 29.5455L108.804 26.6086L108.687 26.4427C108.506 26.1869 108.425 25.9695 108.444 25.7906C108.469 25.6126 108.56 25.4675 108.719 25.3552C108.878 25.2429 109.044 25.2061 109.217 25.2449C109.395 25.2847 109.575 25.4325 109.755 25.6883L110.618 26.9208L108.275 32.6478L111.474 30.3883L111.203 30.0047C111.022 29.7489 110.941 29.5315 110.96 29.3525C110.984 29.1746 111.076 29.0295 111.235 28.9172C111.394 28.8048 111.56 28.7681 111.732 28.8069C111.911 28.8467 112.09 28.9945 112.271 29.2503L113.251 30.6487C113.432 30.9045 113.511 31.1201 113.49 31.2956C113.472 31.4746 113.383 31.6202 113.224 31.7325C113.068 31.8424 112.902 31.8791 112.727 31.8428C112.551 31.8064 112.385 31.6776 112.228 31.4564L107.007 35.1441L106.264 34.0915L108.611 28.338Z" fill="white"/>
<path d="M108.991 35.9281L113.524 33.6108C113.402 33.364 113.364 33.1552 113.41 32.9844C113.46 32.8117 113.569 32.6821 113.739 32.5954C113.912 32.5068 114.081 32.4939 114.247 32.5568C114.418 32.6215 114.574 32.7933 114.717 33.0721L115.951 35.4996C116.143 35.8764 116.262 36.2794 116.305 36.7087C116.351 37.1417 116.322 37.5223 116.219 37.8507C116.142 38.0993 116.007 38.3844 115.815 38.7059C115.625 39.0313 115.413 39.3104 115.181 39.5434C114.948 39.7764 114.63 39.9959 114.227 40.202L113.673 40.4852C113.183 40.7356 112.706 40.8752 112.24 40.904C111.779 40.9308 111.358 40.8702 110.978 40.7222C110.604 40.5761 110.3 40.4132 110.066 40.2336C109.696 39.9473 109.358 39.5047 109.052 38.9056L107.861 36.577C107.719 36.2981 107.669 36.0715 107.713 35.897C107.763 35.7243 107.874 35.5937 108.047 35.505C108.217 35.4184 108.386 35.4055 108.555 35.4664C108.726 35.5312 108.871 35.685 108.991 35.9281ZM109.583 37.0868L110.213 38.3189C110.448 38.7786 110.691 39.0915 110.943 39.2577C111.272 39.4743 111.61 39.5914 111.956 39.6092C112.303 39.6269 112.689 39.5269 113.115 39.3092L113.663 39.029C114.028 38.8421 114.313 38.6087 114.517 38.3286C114.835 37.8905 115.002 37.4934 115.02 37.1375C115.043 36.7834 114.95 36.4009 114.74 35.9902L114.116 34.7694L109.583 37.0868Z" fill="white"/>
<path d="M117.66 46.3219L113.91 47.3098L114.029 47.764C114.109 48.0669 114.106 48.2973 114.021 48.4555C113.941 48.6166 113.807 48.7219 113.618 48.7715C113.434 48.82 113.266 48.7944 113.112 48.6948C112.964 48.5981 112.851 48.3983 112.771 48.0955L112.336 46.4443C112.256 46.1415 112.257 45.9116 112.338 45.7545C112.422 45.5923 112.558 45.4864 112.747 45.4368C112.931 45.3883 113.097 45.4124 113.245 45.5091C113.397 45.6047 113.508 45.7855 113.578 46.0515L118.501 44.7547C118.463 44.5283 118.487 44.3428 118.571 44.198C118.656 44.0573 118.785 43.9644 118.957 43.9191C119.145 43.8695 119.313 43.8931 119.461 43.9897C119.615 44.0894 119.731 44.2907 119.811 44.5935L120.168 45.9762L116.832 48.6864L121.069 49.3691L121.43 50.7641C121.509 51.0669 121.509 51.2968 121.427 51.4539C121.347 51.615 121.213 51.7204 121.025 51.77C120.853 51.8152 120.695 51.7957 120.55 51.7113C120.405 51.6269 120.294 51.4789 120.217 51.2674L115.294 52.5642C115.364 52.8302 115.356 53.0422 115.271 53.2003C115.186 53.3585 115.051 53.4618 114.867 53.5103C114.683 53.5588 114.514 53.5332 114.361 53.4335C114.213 53.3368 114.099 53.1371 114.019 52.8343L113.583 51.1769C113.504 50.8782 113.505 50.6483 113.585 50.4871C113.67 50.329 113.807 50.2252 113.995 50.1756C114.179 50.1271 114.345 50.1512 114.493 50.2478C114.646 50.3475 114.762 50.5467 114.841 50.8455L114.962 51.3058L118.713 50.3179L115.092 49.7291L114.804 48.6365L117.66 46.3219Z" fill="white"/>
<path d="M118.787 60.1679C117.639 60.2991 116.641 60.0426 115.792 59.3985C114.948 58.7581 114.471 57.9586 114.361 57C114.263 56.1381 114.491 55.324 115.047 54.5577C115.735 53.6102 116.706 53.0648 117.959 52.9216C119.212 52.7784 120.282 53.0905 121.171 53.8579C121.885 54.4791 122.291 55.2206 122.39 56.0825C122.499 57.0411 122.213 57.9278 121.531 58.7426C120.853 59.5612 119.939 60.0363 118.787 60.1679ZM118.639 58.8751C119.425 58.7852 120.048 58.4734 120.506 57.9397C120.969 57.4055 121.166 56.8357 121.097 56.2303C121.028 55.629 120.708 55.1204 120.137 54.7044C119.565 54.2884 118.888 54.1251 118.106 54.2145C117.324 54.3039 116.702 54.6156 116.239 55.1498C115.78 55.6836 115.585 56.251 115.654 56.8523C115.723 57.4577 116.042 57.9687 116.609 58.3851C117.176 58.8016 117.853 58.9649 118.639 58.8751Z" fill="white"/>
<path d="M118.604 68.2278C117.45 68.1954 116.498 67.8003 115.748 67.0426C115.003 66.2893 114.644 65.4304 114.672 64.4659C114.696 63.5987 115.037 62.8251 115.696 62.1451C116.511 61.3044 117.549 60.9018 118.809 60.9373C120.07 60.9727 121.086 61.4331 121.857 62.3184C122.476 63.0343 122.773 63.8259 122.749 64.693C122.722 65.6575 122.313 66.4948 121.523 67.205C120.736 67.9195 119.764 68.2604 118.604 68.2278ZM118.641 66.9271C119.432 66.9493 120.092 66.7287 120.622 66.2652C121.156 65.8018 121.431 65.2656 121.448 64.6565C121.465 64.0515 121.22 63.5028 120.713 63.0101C120.207 62.5175 119.56 62.2601 118.773 62.238C117.986 62.2159 117.326 62.4365 116.792 62.8999C116.263 63.3634 115.989 63.8976 115.972 64.5025C115.955 65.1116 116.198 65.6624 116.701 66.1549C117.203 66.6475 117.85 66.9048 118.641 66.9271Z" fill="white"/>
<path d="M119.518 71.4364L115.642 70.7523L115.561 71.2149C115.506 71.5233 115.407 71.7314 115.264 71.8393C115.123 71.952 114.957 71.9915 114.766 71.9576C114.578 71.9245 114.436 71.8307 114.338 71.676C114.244 71.5262 114.225 71.2971 114.279 70.9887L114.576 69.3072C114.63 68.9988 114.728 68.7882 114.868 68.6755C115.012 68.5676 115.179 68.5306 115.371 68.5644C115.554 68.5968 115.695 68.6882 115.793 68.8388C115.891 68.9893 115.916 69.2 115.868 69.4709L120.882 70.3557L120.917 70.1557C120.972 69.8473 121.069 69.6367 121.209 69.5239C121.353 69.4161 121.52 69.3791 121.712 69.4129C121.904 69.4467 122.047 69.5386 122.14 69.6883C122.238 69.843 122.259 70.0746 122.205 70.3829L121.937 71.8633L116.221 74.232L120.077 74.9127L120.159 74.4501C120.214 74.1417 120.311 73.9312 120.451 73.8184C120.595 73.7106 120.762 73.6735 120.954 73.7074C121.146 73.7412 121.289 73.833 121.383 73.9828C121.48 74.1375 121.501 74.369 121.447 74.6774L121.144 76.3578C121.089 76.6662 120.992 76.8747 120.853 76.9833C120.713 77.0961 120.547 77.1355 120.355 77.1017C120.168 77.0686 120.025 76.9768 119.927 76.8263C119.829 76.6757 119.803 76.4671 119.85 76.2004L113.555 75.0894L113.779 73.8204L119.518 71.4364Z" fill="white"/>
<path fill-rule="evenodd" clip-rule="evenodd" d="M66.5281 6.10931C55.7757 5.44251 45.0546 7.83646 35.6071 13.0137C26.1597 18.191 18.3729 25.9395 13.1492 35.3614C7.92549 44.7832 5.47877 55.4924 6.09263 66.2479C6.70648 77.0034 10.3558 87.3648 16.6175 96.1311C17.898 97.9237 19.277 99.6346 20.746 101.257L17.4129 112.209L16.0433 116.709C15.8825 117.237 16.1805 117.796 16.7088 117.957C17.2372 118.118 17.7959 117.82 17.9567 117.291L19.2792 112.946C20.8823 110.686 22.8756 108.149 25.1342 105.605C29.3839 109.382 34.1896 112.515 39.4005 114.885L41.7366 117.646C42.0934 118.068 42.7243 118.12 43.1459 117.763C43.5167 117.45 43.6021 116.924 43.3747 116.515C52.827 119.981 63.0417 120.887 72.978 119.12C83.5846 117.234 93.4397 112.381 101.401 105.123C109.362 97.8654 115.104 88.5001 117.96 78.1126C118.107 77.5801 117.794 77.0297 117.261 76.8833C116.728 76.7368 116.178 77.0498 116.032 77.5824C113.276 87.6053 107.736 96.6421 100.054 103.645C92.3717 110.648 82.8624 115.331 72.6279 117.151C71.8746 117.285 71.1196 117.403 70.3634 117.505C70.3977 117.446 70.4264 117.383 70.4487 117.316C72.0311 112.569 71.2854 108.623 70.5357 106.86C71.1253 103.448 73.9063 94.4434 80.832 84.0547C85.1617 77.5602 86.8941 72.9116 87.5368 69.4079C92.4459 70.912 97.2152 71.5 101 71.5C101.43 71.5 101.813 71.2246 101.949 70.8162L102.949 67.8162C103.081 67.4188 102.952 66.9809 102.625 66.7191L90.1247 56.7191C89.7894 56.4509 89.3204 56.4267 88.9592 56.6588C87.0639 57.8773 86.1608 59.0811 85.8626 60.5959C85.724 61.3 85.7268 62.0214 85.7588 62.7389C85.7716 63.0249 85.7883 63.3021 85.8052 63.5839L85.8053 63.5844C85.8334 64.052 85.8623 64.5322 85.8753 65.0859C85.8871 65.5901 85.8845 66.1368 85.8499 66.7341C79.5168 64.4104 73.2169 60.4262 68.8999 54.0663C69.2873 54.1758 69.6918 54.26 70.1106 54.3117C71.8657 54.5281 73.8256 54.1643 75.7251 52.7743C78.1662 54.6123 80.4076 55.431 82.3795 55.4344C84.5492 55.4381 86.2624 54.4523 87.3896 53.0179C89.5557 50.2612 89.6462 45.6363 86.6247 43.2191C86.1934 42.8741 85.5641 42.944 85.2191 43.3753C84.8741 43.8066 84.944 44.4359 85.3753 44.7809C87.3538 46.3637 87.462 49.6888 85.817 51.7821C85.0386 52.7727 83.889 53.4369 82.3829 53.4344C81.039 53.4321 79.3153 52.897 77.2482 51.4122C77.9843 50.6244 78.6936 49.6615 79.3654 48.501C79.5663 48.1541 79.5405 47.7207 79.3 47.4L73.3 39.4C73.0112 39.015 72.4892 38.8903 72.0576 39.1032C71.626 39.3161 71.4073 39.8062 71.537 40.2696L74.5792 51.1344C73.0871 52.2395 71.6262 52.4834 70.3553 52.3267C68.9899 52.1583 67.7944 51.5185 67.0084 50.8679C64.2236 45.4155 62.7399 38.4463 63.4964 29.5851C63.5434 29.0348 63.1353 28.5506 62.5851 28.5036C62.0348 28.4566 61.5506 28.8647 61.5036 29.4149C60.7116 38.693 62.2824 46.1025 65.3214 51.9605C69.9261 60.8366 77.8095 66.0073 85.6178 68.7745C85.0694 72.0163 83.4754 76.4841 79.168 82.9454C73.1213 92.0154 70.1234 100.117 68.984 104.599L61.6238 94.5273C65.4121 93.2165 70.004 90.8693 72.6674 87.551C74.1851 85.6601 75.1187 83.3972 74.8362 80.8223C74.5558 78.2659 73.0955 75.5779 70.1941 72.7802C67.1156 69.8116 62.4347 68.7551 57.3527 68.7879C52.2417 68.8209 46.5367 69.9553 41.1922 71.5775C35.8428 73.2011 30.8033 75.3291 27.0131 77.3846C25.1205 78.411 23.5145 79.4328 22.331 80.3799C21.7398 80.8531 21.2337 81.3237 20.8468 81.7831C20.4713 82.2291 20.1476 82.7351 20.0246 83.2797C19.4055 86.0205 19.6667 87.9246 20.4015 89.6522C20.7556 90.4847 21.2111 91.2557 21.6767 92.0183C21.7093 92.0716 21.7419 92.1249 21.7745 92.1781C21.8142 92.243 21.8541 92.3079 21.894 92.3729C22.2339 92.9268 22.5791 93.4892 22.9216 94.1088L21.4293 99.0122C20.3084 97.7183 19.2455 96.3693 18.245 94.9686C12.2029 86.5099 8.68169 76.5121 8.08938 66.134C7.49706 55.7558 9.85793 45.4223 14.8984 36.3311C19.9388 27.2399 27.4524 19.7632 36.5683 14.7676C45.6842 9.77203 56.0292 7.46207 66.4043 8.10548C66.9555 8.13966 67.4301 7.72052 67.4643 7.16929C67.4985 6.61806 67.0793 6.1435 66.5281 6.10931ZM22.3265 102.933L20.9547 107.44C21.8044 106.392 22.7098 105.322 23.6626 104.25C23.2102 103.819 22.7648 103.38 22.3265 102.933ZM25.008 102.769C24.3195 102.112 23.6477 101.436 22.9933 100.742L24.9567 94.2912C25.0337 94.0382 25.0073 93.7649 24.8833 93.5313C24.4453 92.706 23.9972 91.976 23.5927 91.3172C23.5216 91.2013 23.4518 91.0877 23.3837 90.9761C22.9202 90.217 22.5336 89.555 22.242 88.8694C21.6854 87.5608 21.4407 86.0881 21.9754 83.7204C21.9966 83.6264 22.0906 83.4112 22.3767 83.0714C22.6515 82.745 23.0513 82.3652 23.5807 81.9415C24.6386 81.0948 26.1333 80.137 27.9666 79.1427C31.6284 77.1568 36.5417 75.0791 41.7731 73.4913C47.0095 71.9019 52.5131 70.8192 57.3656 70.7879C62.2471 70.7564 66.2844 71.7885 68.8059 74.2199C71.5045 76.8222 72.6359 79.1051 72.8481 81.0403C73.0584 82.9571 72.3858 84.7067 71.1076 86.2991C68.6388 89.375 64.0746 91.6465 60.3276 92.8517C57.1354 89.2962 53.4049 87.833 49.4686 87.9128C45.4079 87.9951 41.2262 89.7155 37.265 92.2309C32.8777 95.0169 28.6518 98.8484 25.008 102.769ZM26.4791 104.124C29.4217 106.738 32.6403 109.031 36.0812 110.962L30.7366 104.646C30.5241 104.395 30.4487 104.055 30.535 103.738C30.6214 103.42 30.8584 103.165 31.1689 103.056L58.2426 93.5569C55.5763 90.8872 52.6086 89.8495 49.5091 89.9124C45.9626 89.9842 42.1448 91.5013 38.3372 93.9192C34.1214 96.5963 30.027 100.307 26.4791 104.124ZM40.6345 113.247C41.1614 113.482 41.6925 113.708 42.2276 113.927C50.6506 117.362 59.7746 118.647 68.781 117.695C68.5306 117.436 68.4294 117.05 68.5513 116.684C70.0381 112.224 69.1878 108.686 68.6395 107.517L59.6306 95.1894L33.2015 104.463L40.6345 113.247ZM100.282 69.4928C96.6684 69.4211 92.2797 68.8082 87.8068 67.4003C87.88 66.5394 87.8915 65.7575 87.8747 65.0391C87.8612 64.46 87.8277 63.8967 87.798 63.3979L87.798 63.3974C87.7818 63.1266 87.7669 62.8748 87.7568 62.6498C87.7263 61.9669 87.7344 61.4422 87.8249 60.9822C87.9635 60.2781 88.3203 59.5868 89.4548 58.7445L100.831 67.8453L100.282 69.4928ZM77.2955 48.0606C76.9381 48.628 76.5769 49.1253 76.2153 49.5601L74.9018 44.8691L77.2955 48.0606Z" fill="white"/>
</g>
<defs>
<clipPath id="clip0_11_1835">
<rect width="126" height="126" fill="white"/>
</clipPath>
</defs>
</svg>
